<svg width="18" height="18" viewBox="0 0 18 18" fill="none" xmlns="http://www.w3.org/2000/svg">
<path d="M17.425 0.151229L17.015 3.14423C15.949 3.06223 15.17 3.2809 14.678 3.80023C14.186 4.31956 13.8853 5.01656 13.776 5.89123C13.6667 6.7659 13.6393 7.7089 13.694 8.72023H17.425V17.3712H10.414V7.08023C10.414 4.56556 11.0427 2.67956 12.3 1.42223C13.5847 0.164897 15.293 -0.25877 17.425 0.151229ZM7.011 0.151229L6.601 3.14423C5.535 3.06223 4.756 3.2809 4.264 3.80023C3.772 4.31956 3.47133 5.01656 3.362 5.89123C3.25267 6.7659 3.22533 7.7089 3.28 8.72023H7.011V17.3712H0V7.08023C0 4.56556 0.628667 2.67956 1.886 1.42223C3.17067 0.164897 4.879 -0.25877 7.011 0.151229Z" fill="white"/>
</svg>
